0
SECTION
2
HEADER
9
$INSUNITS
70
4
9
$ACADVER
1
AC1014
9
$HANDSEED
5
FFFF
0
ENDSEC
0
SECTION
2
TABLES
0
TABLE
2
VPORT
5
8
100
AcDbSymbolTable
0
ENDTAB
0
TABLE
2
LTYPE
5
5
100
AcDbSymbolTable
0
LTYPE
5
14
100
AcDbSymbolTableRecord
100
AcDbLinetypeTableRecord
2
BYBLOCK
70
0
0
LTYPE
5
15
100
AcDbSymbolTableRecord
100
AcDbLinetypeTableRecord
2
BYLAYER
70
0
0
LTYPE
5
16
100
AcDbSymbolTableRecord
100
AcDbLinetypeTableRecord
2
DASHED
70
0
3
Dashed __ __ __ __ __ __ __ __ __ __ __ __ __ _
72
65
73
2
40
0.75
49
0.5
74
0
49
-0.25
74
0
0
ENDTAB
0
TABLE
2
LAYER
5
2
100
AcDbSymbolTable
70
2
0
LAYER
5
50
100
AcDbSymbolTableRecord
100
AcDbLayerTableRecord
2
0
70
0
62
7
6
CONTINUOUS
0
ENDTAB
0
TABLE
2
STYLE
5
3
100
AcDbSymbolTable
70
1
0
STYLE
5
11
100
AcDbSymbolTableRecord
100
AcDbTextStyleTableRecord
2
STANDARD
70
0
0
ENDTAB
0
TABLE
2
VIEW
5
6
100
AcDbSymbolTable
70
0
0
ENDTAB
0
TABLE
2
UCS
5
7
100
AcDbSymbolTable
70
0
0
ENDTAB
0
TABLE
2
APPID
5
9
100
AcDbSymbolTable
70
2
0
APPID
5
12
100
AcDbSymbolTableRecord
100
AcDbRegAppTableRecord
2
ACAD
70
0
0
ENDTAB
0
TABLE
2
DIMSTYLE
5
A
100
AcDbSymbolTable
70
1
0
ENDTAB
0
TABLE
2
BLOCK_RECORD
5
1
100
AcDbSymbolTable
70
1
0
BLOCK_RECORD
5
1F
100
AcDbSymbolTableRecord
100
AcDbBlockTableRecord
2
*MODEL_SPACE
0
BLOCK_RECORD
5
1B
100
AcDbSymbolTableRecord
100
AcDbBlockTableRecord
2
*PAPER_SPACE
0
ENDTAB
0
ENDSEC
0
SECTION
2
BLOCKS
0
BLOCK
5
20
100
AcDbEntity
100
AcDbBlockBegin
2
*MODEL_SPACE
0
ENDBLK
5
21
100
AcDbEntity
100
AcDbBlockEnd
0
BLOCK
5
1C
100
AcDbEntity
100
AcDbBlockBegin
2
*PAPER_SPACE
0
ENDBLK
5
1D
100
AcDbEntity
100
AcDbBlockEnd
0
ENDSEC
0
SECTION
2
ENTITIES
0
LWPOLYLINE
5
100
100
AcDbEntity
8
0
100
AcDbPolyline
90
330
70
1
43
0.0
10
47.553300857544052
20
-24.355780745029939
10
53.081588745117294
20
-24.29872965477027
10
58.724193572998153
20
-24.240499233434655
10
64.453239440918082
20
-24.181377478004151
10
70.239162445068473
20
-24.121665116515409
10
70.803508758545036
20
-24.095891893833837
10
71.334486007690543
20
-24.034905019554742
10
71.774387359619254
20
-23.956810398095207
10
71.82320594787609
20
-23.946570156861007
10
72.269945144653434
20
-23.837906631197878
10
73.037834167480582
20
-23.585238582345305
10
73.249340057373161
20
-23.500099949896558
10
73.699131011963004
20
-23.294987661502443
10
74.178409576416129
20
-23.037810284742363
10
74.609088897705192
20
-22.768544476166269
10
74.721117019653434
20
-22.692114446920932
10
75.311450958252067
20
-22.239896794373607
10
75.615100860595817
20
-21.970526532125298
10
75.802974700927848
20
-21.789404281783838
10
75.915222167968864
20
-21.675246101961648
10
76.205844879150504
20
-21.357217406639379
10
76.476106643676871
20
-21.027516068229154
10
76.720781326294059
20
-20.695019668191556
10
76.78653717041027
20
-20.599146367575859
10
76.932621002197379
20
-20.374877586026198
10
77.111063003540153
20
-20.076269508613013
10
77.263393402099723
20
-19.795265055150612
10
77.397632598877067
20
-19.52295052764239
10
77.513103485107536
20
-19.265641442091258
10
77.523107528686637
20
-19.242110128860443
10
77.773895263671989
20
-18.566855485124776
10
77.894363403320426
20
-18.153627873375154
10
77.985286712646598
20
-17.768853322520624
10
78.003034591674918
20
-17.682080512587902
10
78.105239868164176
20
-17.027247184083581
10
78.139343261718864
20
-16.647301220108943
10
78.155822753906364
20
-16.234247085102112
10
79.243097305297965
20
61.313051563449406
10
79.23470497131359
20
61.808422623712616
10
79.203252792358512
20
62.230535749880936
10
79.171419143676871
20
62.499533274476384
10
79.099731445312614
20
62.937036765981134
10
79.0157985687257
20
63.322465911417503
10
78.954515457153434
20
63.55741556228957
10
78.92464637756359
20
63.662584195065278
10
78.877363204956168
20
63.819002986083902
10
78.783397674560661
20
64.100255834222949
10
78.67125511169445
20
64.397387681790292
10
78.543930053711051
20
64.697650402881123
10
78.508310317993278
20
64.776044833370804
10
78.402891159057731
20
64.995720283959045
10
78.092269897461051
20
65.560318033096777
10
77.933349609375114
20
65.812813990275984
10
77.760391235351676
20
66.065791026209638
10
77.422809600830192
20
66.506624216648135
10
77.211742401123161
20
66.752922855476612
10
77.089824676513786
20
66.886439188744461
10
76.568965911865348
20
67.395427062897568
10
76.357069015503043
20
67.577871854312505
10
75.932292938232536
20
67.907396388700747
10
75.565357208252067
20
68.157581948213121
10
75.392436981201286
20
68.265489287123586
10
75.17067909240734
20
68.39516116937466
10
74.755954742431754
20
68.613068898614642
10
74.334983825683707
20
68.803893272054324
10
71.640224456787223
20
69.922042507735185
10
69.142971038818473
20
70.937945682629405
10
67.584095001220817
20
71.559745879499161
10
66.809949874878043
20
71.868149072210471
10
64.607944488525504
20
72.728546363778065
10
64.092578887939567
20
72.925949590689399
10
60.518913269043075
20
74.280858211010127
10
59.900884628296005
20
74.510719571595217
10
58.662605285644638
20
74.968644141442397
10
56.692028045654403
20
75.6892596113357
10
54.932069778442489
20
76.31753582457921
10
52.523937225341903
20
77.171146909635823
10
49.935989379882919
20
78.052154929475648
10
48.256034851074325
20
78.606716908126899
10
46.160697937011825
20
79.269461166861049
10
44.524383544921982
20
79.761389068074664
10
44.131660461425888
20
79.875385793077399
10
43.846254348754989
20
79.962122840967155
10
42.826595306396591
20
80.268679995800184
10
39.755861759185905
20
81.159392050183101
10
38.179008960723991
20
81.597034372218019
10
35.267868041992301
20
82.365323486414923
10
33.487880229950065
20
82.809378969968037
10
30.737929344177356
20
83.449829735423421
10
28.84446382522594
20
83.857871592081466
10
26.5913748741151
20
84.303584125307907
10
26.241428852081409
20
84.368808818506182
10
24.440882205963245
20
84.686016369992331
10
24.061529636383167
20
84.749210355985909
10
22.386817932129016
20
85.009088013069785
10
21.939535140991321
20
85.074355973957381
10
20.421798229217639
20
85.277013825829329
10
18.537778854370227
20
85.493837559290156
10
17.841925621032825
20
85.564513600949468
10
16.726659536361804
20
85.663535849076197
10
13.893929719925037
20
85.850410776786902
10
13.290128707885852
20
85.87699202727471
10
10.040873289108387
20
85.943239494804999
10
-18.936911821365246
20
85.943978961031178
10
-18.939957183687572
20
85.943965954677509
10
-19.389845132827649
20
85.943974199669881
10
-19.396938841116469
20
85.943959636608568
10
-19.398432511185145
20
85.943959673607594
10
-20.174345970153698
20
85.943972678711418
10
-20.621761599080784
20
85.943238712982577
10
-20.62728166581627
20
85.943237086370374
10
-21.358799934387097
20
85.943235670262595
10
-21.948976371133053
20
85.943236776005591
10
-25.200471878051648
20
85.943242867943837
10
-27.280216217040905
20
85.943972678711418
10
-28.052164961596763
20
85.943948428345536
10
-28.064718246459851
20
85.943974199669881
10
-28.509318809938883
20
85.943943372928416
10
-28.517651557922253
20
85.943978961031178
10
-29.541029533865352
20
85.943889670099907
10
-45.903160502092348
20
85.943243936345311
10
-46.244993209838761
20
85.943244352240228
10
-47.088308334350479
20
85.898667991703178
10
-47.423725128173722
20
85.855758152428834
10
-47.715749740600479
20
85.806862350443168
10
-47.741971659603209
20
85.800436514281785
10
-47.812509536743057
20
85.788174728121035
10
-48.449831008911026
20
85.633409788912275
10
-48.576736450195206
20
85.595872470853877
10
-48.999547958373917
20
85.454054616688836
10
-49.069802816054434
20
85.425436874480141
10
-49.136877059936417
20
85.402251681676674
10
-49.311014828457367
20
85.327181132222762
10
-49.523029327392472
20
85.240818758497383
10
-49.678764343261612
20
85.168644828626753
10
-50.152797698974503
20
84.923870988553915
10
-50.43398497032819
20
84.757066229750833
10
-50.458440780639542
20
84.743738352066373
10
-50.481062902518097
20
84.729138852078009
10
-50.496492385864151
20
84.719985837307448
10
-50.705986022949112
20
84.583981597964325
10
-50.847473144531143
20
84.486622182403565
10
-51.199197769164932
20
84.224625115963377
10
-51.543254852294815
20
83.937140214072315
10
-51.635656356811417
20
83.854089271101373
10
-51.637525558471573
20
83.852591081920579
10
-51.640068562134175
20
83.849901077233127
10
-51.869421005248917
20
83.632193054678623
10
-52.173652648925675
20
83.314548361520849
10
-52.447862625121964
20
82.995411621363303
10
-52.630891799926651
20
82.761965358046567
10
-52.646628014788568
20
82.738506599779313
10
-52.692222595214737
20
82.679575431288939
10
-53.095254898071182
20
82.075031243323537
10
-53.124418258666886
20
82.026240916326174
10
-53.406057357787979
20
81.509634471284272
10
-53.407028297010932
20
81.507506470288931
10
-53.407945632934464
20
81.505822688124255
10
-53.424316590638419
20
81.469615832875689
10
-53.631858825683487
20
81.014746905642568
10
-53.651075363159073
20
80.968104424596078
10
-53.940458297729386
20
80.129513861473058
10
-53.970556352366884
20
80.015362452468452
10
-53.977499008178604
20
79.994658373623963
10
-54.015779495239151
20
79.843846866472603
10
-54.114665985107315
20
79.381388733591251
10
-54.211168289184464
20
78.678140654542887
10
-54.614381790161026
20
74.183689877868119
10
-55.001115798950089
20
69.609607523097807
10
-55.064802169799698
20
68.823598933070286
10
-55.25918006896962
20
66.388452371793619
10
-55.494546890258682
20
63.312804977081129
10
-55.733709335327042
20
60.034873736917447
10
-55.955057144164932
20
56.844772118694621
10
-56.169157028198136
20
53.59872454249377
10
-56.369028091430557
20
50.407835817823283
10
-56.551656723022354
20
47.34473467018833
10
-56.726045608520401
20
44.279769214020106
10
-56.802539825439347
20
42.884617201417079
10
-56.927452087402237
20
40.566762768964963
10
-57.100057601928604
20
37.248032521499908
10
-57.127037048339737
20
36.71880362082009
10
-57.227830886840714
20
34.724287055305687
10
-57.373714447021378
20
31.807174339511846
10
-57.633476257324112
20
26.621946120254339
10
-57.892313003539932
20
21.690537764930333
10
-58.163194656371964
20
17.011128608901704
10
-58.426605954661746
20
13.068169637904635
10
-58.486157355025021
20
12.243000818182679
10
-58.790855645809842
20
8.4277901306837588
10
-58.794999897873197
20
8.3805157374173369
10
-59.163372043521996
20
4.6149023721307509
10
-59.185261842811279
20
4.4059434762310801
10
-59.626693725585831
20
0.77716908140840979
10
-60.048803335530422
20
-2.0066892298771832
10
-60.113570660530797
20
-2.3932213955557136
10
-60.550708430978204
20
-4.8223139696542097
10
-60.647251569882137
20
-5.3003305643714267
10
-61.020153080355961
20
-7.0712582291876611
10
-61.199372485529864
20
-7.8748935009965209
10
-61.561630231578093
20
-9.3617514665796122
10
-61.714458465576065
20
-9.9789964284519215
10
-62.103575360890495
20
-11.3872354499805
10
-62.2747884654394
20
-12.000102854768304
10
-62.790241153968445
20
-13.662444366756636
10
-62.928482359947957
20
-14.097253267162046
10
-63.594401729240516
20
-15.99650242272509
10
-63.674148455551332
20
-16.218313347849701
10
-64.55801963806141
20
-18.433260063555107
10
-64.60552868518586
20
-18.542438125879567
10
-65.383169257218185
20
-20.241024592403395
10
-65.689579388885647
20
-20.87061256161272
10
-66.344632163551211
20
-22.126669773313147
10
-66.652535523285522
20
-22.699976764687197
10
-67.642716049167035
20
-24.374588225686296
10
-67.927404336977133
20
-24.810092631843602
10
-68.89381922143771
20
-26.256155002657373
10
-68.911497690041514
20
-26.280794348535728
10
-70.117714331720592
20
-27.881502661131371
10
-70.285945283349037
20
-28.093345218847269
10
-71.499399327753935
20
-29.524596506345251
10
-71.738392548396718
20
-29.79102013305409
10
-73.076771954070963
20
-31.196093553371341
10
-73.707092687758873
20
-31.807548148648948
10
-74.002454293324817
20
-32.090992802252998
10
-74.976788005713772
20
-32.968884338026761
10
-75.069398880004769
20
-33.052075735598365
10
-76.121360509729953
20
-33.935605748753751
10
-77.273912429809457
20
-34.841759829146028
10
-77.401056289672738
20
-34.941688069642609
10
-78.017835617065316
20
-35.537546044364078
10
-78.032903671264535
20
-35.554996488156888
10
-78.572492599487191
20
-36.312232403828929
10
-78.60535621643055
20
-36.369723834656163
10
-78.971223831176644
20
-37.181168392453174
10
-79.011697769164925
20
-37.302710530921388
10
-79.196882247924691
20
-38.107632275145257
10
-79.22054290771473
20
-38.296904123939171
10
-79.243097305297738
20
-39.047346852154938
10
-79.223985671996957
20
-39.314150572359395
10
-79.117164611816293
20
-39.959670524146084
10
-79.021787643432504
20
-40.310014770147909
10
-78.844594955444222
20
-40.790222102269944
10
-78.622055053710824
20
-41.24510325719632
10
-78.476591110229379
20
-41.490890488542924
10
-78.280286788940316
20
-41.779134749922363
10
-78.166446685790902
20
-41.928423357980463
10
-78.041639328002816
20
-42.079682518231294
10
-52.469968795776261
20
-71.859963870658376
10
-49.919843673705948
20
-74.829804033054046
10
-49.767856597900284
20
-74.998858386410603
10
-49.611921310424698
20
-75.157367810148983
10
-49.271163940429581
20
-75.459730247417269
10
-49.01126861572255
20
-75.656209519226309
10
-48.519296646118057
20
-75.962729405839454
10
-48.332977294921768
20
-76.059231601416869
10
-47.689847946166886
20
-76.321777696282339
10
-47.591505050659073
20
-76.353019616765636
10
-46.811294555663956
20
-76.525347864913925
10
-46.808328628539932
20
-76.525768551243104
10
-46.008749008178604
20
-76.571103664532444
10
-45.906591415405167
20
-76.567651068745477
10
-45.207662582397354
20
-76.487351543598137
10
-45.010557174682511
20
-76.446380291355268
10
-44.429159164428604
20
-76.275599407538067
10
-44.152040481567276
20
-76.166158144601468
10
-43.695478439330948
20
-75.941750852043199
10
-43.357458114623917
20
-75.735754986106031
10
-39.593808650970352
20
-73.224276470523876
10
-37.66804218292225
20
-71.933656511092053
10
-35.8505344390868
20
-70.711442546652535
10
-31.819968223571667
20
-67.991641659569197
10
-30.038998126983532
20
-66.784249166449982
10
-27.995815277099499
20
-65.396554135209598
10
-25.877106189727673
20
-63.953785897791803
10
-23.673276901245007
20
-62.448995555996959
10
-20.049219131469616
20
-59.965409312240809
10
-19.1151201725005
20
-59.323325159130569
10
-14.420481920242199
20
-56.084547609362545
10
-14.327223300933728
20
-56.019990548057365
10
-11.557309627532849
20
-54.098983044900244
10
-9.6461945772169919
20
-52.769075015067457
10
-8.9144170798124094
20
-52.258830880017022
10
-8.1765198707579465
20
-51.743771038897478
10
-6.8421041965483518
20
-50.810821903646101
10
-6.4068663120268674
20
-50.506071302140462
10
-5.3607428073881946
20
-49.772830715032974
10
-4.0300232172011228
20
-48.838224798111099
10
-3.7274602055548516
20
-48.625501326865674
10
-1.9630366563795891
20
-47.382546557217168
10
-1.7792439460753293
20
-47.252826291402329
10
0.22031545639049105
20
-45.839190234180471
10
0.35011380910884404
20
-45.747411860304339
10
2.3626920580865054
20
-44.319521451018048
10
4.2631328105927615
20
-42.966676226026905
10
6.0560774803162722
20
-41.686425523390525
10
7.7461683750153689
20
-40.476281941752312
10
9.3380463123322635
20
-39.333799515101255
10
10.836354494094959
20
-38.256498577902121
10
12.245733737945667
20
-37.241924600303854
10
13.57082724571239
20
-36.287599572808574
10
14.816275835037342
20
-35.391057917669144
10
15.986720323562732
20
-34.54984040910513
10
17.086807489395252
20
-33.761476773440037
10
18.121170997619739
20
-33.023498393034714
10
20.011312961578479
20
-31.688844751056244
10
21.540568923295993
20
-30.632336154631762
10
22.166382166287075
20
-30.210826478040133
10
23.052521636297062
20
-29.6189756261955
10
24.643392225400159
20
-28.604215850990641
10
24.845401527391452
20
-28.483870435020023
10
26.22779908273354
20
-27.678049843664493
10
26.649959573182688
20
-27.447424853892098
10
28.230512518486883
20
-26.651019983584632
10
28.262329531134974
20
-26.637527024142891
10
29.666382856037757
20
-26.074083568262658
10
31.492601397953162
20
-25.483747460945622
10
31.603728593253969
20
-25.45050159598425
10
33.695320737458758
20
-25.031871180094697
10
35.089534054651551
20
-24.835952333280595
10
35.17138384261483
20
-24.825536912551108
10
36.970818645713742
20
-24.664586788206915
10
37.467790136930056
20
-24.63217921203865
10
38.772675446438072
20
-24.559704195162347
10
38.785269260406608
20
-24.559042326407813
10
39.904062747955436
20
-24.512056287879254
10
41.143989562988388
20
-24.470793065746676
10
41.814775494269028
20
-24.453254695657378
10
45.63915254891679
20
-24.37885179601674
10
45.70970535278331
20
-24.377746063833573
0
LINE
5
101
100
AcDbEntity
8
0
100
AcDbLine
10
10.040873289108387
20
85.943239494804999
30
8.8817841970012523e-15
11
8.8882136344910769
21
85.943235827209918
31
1.3088946288734323e-14
0
CIRCLE
5
102
100
AcDbEntity
8
0
100
AcDbCircle
10
-47.558078765869034
20
36.312063292718491
30
8.8817841970012523e-15
40
2.1000000000000001
210
0
220
0
230
1
0
CIRCLE
5
103
100
AcDbEntity
8
0
100
AcDbCircle
10
-45.976161956787003
20
-13.034285823609434
30
4.4408920985006262e-15
40
2.1000000000000036
210
0
220
0
230
1
0
CIRCLE
5
104
100
AcDbEntity
8
0
100
AcDbCircle
10
-9.7961801290510984
20
-36.388309314164339
30
4.4419763006731117e-15
40
2.0999999999999979
210
0
220
0
230
1
0
CIRCLE
5
105
100
AcDbEntity
8
0
100
AcDbCircle
10
67.552347183227653
20
-17.802864619513855
30
0
40
2.0999999999999979
210
0
220
0
230
1
0
CIRCLE
5
106
100
AcDbEntity
8
0
100
AcDbCircle
10
68.023843765258903
20
63.965718461167143
30
0
40
2.0999999999999983
210
0
220
0
230
1
0
CIRCLE
5
107
100
AcDbEntity
8
0
100
AcDbCircle
10
10.744284391403308
20
78.546037600030147
30
8.8904578143811364e-15
40
2.1000000000000019
210
0
220
0
230
1
0
ENDSEC
0
SECTION
2
OBJECTS
0
DICTIONARY
5
C
100
AcDbDictionary
3
ACAD_GROUP
350
D
3
ACAD_MLINESTYLE
350
17
0
DICTIONARY
5
D
100
AcDbDictionary
0
DICTIONARY
5
1A
330
C
100
AcDbDictionary
0
DICTIONARY
5
17
100
AcDbDictionary
0
ENDSEC
0
EOF
