0
SECTION
2
HEADER
9
$INSUNITS
70
4
9
$ACADVER
1
AC1014
9
$HANDSEED
5
FFFF
0
ENDSEC
0
SECTION
2
TABLES
0
TABLE
2
VPORT
5
8
100
AcDbSymbolTable
0
ENDTAB
0
TABLE
2
LTYPE
5
5
100
AcDbSymbolTable
0
LTYPE
5
14
100
AcDbSymbolTableRecord
100
AcDbLinetypeTableRecord
2
BYBLOCK
70
0
0
LTYPE
5
15
100
AcDbSymbolTableRecord
100
AcDbLinetypeTableRecord
2
BYLAYER
70
0
0
ENDTAB
0
TABLE
2
LAYER
5
2
100
AcDbSymbolTable
70
2
0
LAYER
5
50
100
AcDbSymbolTableRecord
100
AcDbLayerTableRecord
2
0
70
0
6
CONTINUOUS
0
ENDTAB
0
TABLE
2
STYLE
5
3
100
AcDbSymbolTable
70
1
0
STYLE
5
11
100
AcDbSymbolTableRecord
100
AcDbTextStyleTableRecord
2
STANDARD
70
0
0
ENDTAB
0
TABLE
2
VIEW
5
6
100
AcDbSymbolTable
70
0
0
ENDTAB
0
TABLE
2
UCS
5
7
100
AcDbSymbolTable
70
0
0
ENDTAB
0
TABLE
2
APPID
5
9
100
AcDbSymbolTable
70
2
0
APPID
5
12
100
AcDbSymbolTableRecord
100
AcDbRegAppTableRecord
2
ACAD
70
0
0
ENDTAB
0
TABLE
2
DIMSTYLE
5
A
100
AcDbSymbolTable
70
1
0
ENDTAB
0
TABLE
2
BLOCK_RECORD
5
1
100
AcDbSymbolTable
70
1
0
BLOCK_RECORD
5
1F
100
AcDbSymbolTableRecord
100
AcDbBlockTableRecord
2
*MODEL_SPACE
0
BLOCK_RECORD
5
1B
100
AcDbSymbolTableRecord
100
AcDbBlockTableRecord
2
*PAPER_SPACE
0
ENDTAB
0
ENDSEC
0
SECTION
2
BLOCKS
0
BLOCK
5
20
100
AcDbEntity
100
AcDbBlockBegin
2
*MODEL_SPACE
0
ENDBLK
5
21
100
AcDbEntity
100
AcDbBlockEnd
0
BLOCK
5
1C
100
AcDbEntity
100
AcDbBlockBegin
2
*PAPER_SPACE
0
ENDBLK
5
1D
100
AcDbEntity
100
AcDbBlockEnd
0
ENDSEC
0
SECTION
2
ENTITIES
0
CIRCLE
5
100
100
AcDbEntity
8
0
100
AcDbCircle
10
-19.263734511627764
20
-64.799415904154486
30
0
40
2.5
210
-0
220
0
230
1
0
CIRCLE
5
101
100
AcDbEntity
8
0
100
AcDbCircle
10
-32.76373451162776
20
-68.299415904154486
30
0
40
2.5
210
-0
220
0
230
1
0
CIRCLE
5
102
100
AcDbEntity
8
0
100
AcDbCircle
10
-47.000000700354576
20
-40.000000596046448
30
0
40
1.9999999999999929
210
-0
220
0
230
1
0
CIRCLE
5
103
100
AcDbEntity
8
0
100
AcDbCircle
10
72.000001072883606
20
-68.000001013278961
30
0
40
1.9999999999999929
210
-0
220
0
230
1
0
CIRCLE
5
104
100
AcDbEntity
8
0
100
AcDbCircle
10
16.000000238418579
20
-84.00000125169754
30
0
40
1.9999999999999973
210
-0
220
0
230
1
0
CIRCLE
5
105
100
AcDbEntity
8
0
100
AcDbCircle
10
72.948350310350094
20
13.403963100537
30
0
40
1.9999999999999929
210
-0
220
0
230
1
0
CIRCLE
5
106
100
AcDbEntity
8
0
100
AcDbCircle
10
-14.190340978464405
20
31.456272721075575
30
0
40
1.9999999999999973
210
-0
220
0
230
1
0
CIRCLE
5
107
100
AcDbEntity
8
0
100
AcDbCircle
10
-46.681421718078546
20
0.39003319814257198
30
0
40
1.9999999999999929
210
-0
220
0
230
1
0
LINE
5
108
100
AcDbEntity
8
0
100
AcDbLine
10
-65.43485040491916
20
24.458751630354911
30
0
11
-63.25652260433052
21
23.22881598463098
31
0
0
SPLINE
5
109
100
AcDbEntity
8
0
100
AcDbSpline
70
0
71
3
72
14
73
10
74
0
42
0.000000001
43
0.0000000001
44
0.0000000001
40
0
40
0
40
0
40
0
40
0.74222449943515945
40
0.74222449943515945
40
1.4844489988703189
40
1.4844489988703189
40
1.9070103881971863
40
1.9070103881971863
40
2.3295717775240541
40
2.3295717775240541
40
2.3295717775240541
40
2.3295717775240541
10
-63.25652260433052
20
23.22881598463098
30
0
10
-61.10213142610128
20
22.012395524762049
30
0
10
-59.205931366751116
20
20.386804203845443
30
0
10
-56.143376316704973
20
16.500279161919728
30
0
10
-55.006301021508897
20
14.276502738631242
30
0
10
-53.940937661781696
20
10.542907139633895
30
0
10
-53.706258642884436
20
9.149644451338995
30
0
10
-53.549187219781075
20
6.3369508389939497
30
0
10
-53.627280758932073
20
4.9262217510227053
30
0
10
-53.860562841047042
20
3.5371362002430962
30
0
0
SPLINE
5
110
100
AcDbEntity
8
0
100
AcDbSpline
70
0
71
3
72
8
73
4
74
0
42
0.000000001
43
0.0000000001
44
0.0000000001
40
0.92413011863529892
40
0.92413011863529892
40
0.92413011863529892
40
0.92413011863529892
40
0.99822742622943372
40
0.99822742622943372
40
0.99822742622943372
40
0.99822742622943372
10
-53.860562841046971
20
3.5371362002430877
30
0
10
-53.942839186069726
20
3.0472190964265051
30
0
10
-53.987693211756529
20
2.545357368371727
30
0
10
-53.999229963534518
20
2.0365288642608221
30
0
0
SPLINE
5
111
100
AcDbEntity
8
0
100
AcDbSpline
70
0
71
3
72
10
73
6
74
0
42
0.000000001
43
0.0000000001
44
0.0000000001
40
0
40
0
40
0
40
0
40
0.0034004009973684899
40
0.0034004009973684899
40
0.0068008019947370119
40
0.0068008019947370119
40
0.0068008019947370119
40
0.0068008019947370119
10
-53.999229963534518
20
2.0365288642608217
30
0
10
-53.999486890327468
20
2.0251971065669281
30
0
10
-53.999679594190432
20
2.0138639837733034
30
0
10
-53.99993653748848
20
1.9911960999862846
30
0
10
-54.000000774860382
20
1.9798615210089154
30
0
10
-54.000000774860382
20
1.968526851017687
30
0
0
LINE
5
112
100
AcDbEntity
8
0
100
AcDbLine
10
-54.000000774860382
20
1.9685268510176872
30
0
11
-54.000000774860396
21
-21.387704451631361
31
0
0
SPLINE
5
113
100
AcDbEntity
8
0
100
AcDbSpline
70
0
71
3
72
11
73
7
74
0
42
0.000000001
43
0.0000000001
44
0.0000000001
40
0
40
0
40
0
40
0
40
0.77655039134054038
40
0.77655039134054038
40
0.77655039134054038
40
1
40
1
40
1
40
1
10
-54.000000774860396
20
-21.387704451631361
30
0
10
-54.115568482373718
20
-27.304448663109952
30
0
10
-54.074972278192142
20
-33.192552257477622
30
0
10
-53.703932092518968
20
-39.146620594294454
30
0
10
-53.597166600916452
20
-40.859882546936973
30
0
10
-53.458284800255782
20
-42.578478429867125
30
0
10
-53.281145995296896
20
-44.296900302239798
30
0
0
LINE
5
114
100
AcDbEntity
8
0
100
AcDbLine
10
-53.281145995296896
20
-44.296900302239806
30
0
11
-50.751858083933229
21
-68.833498420442524
31
0
0
SPLINE
5
115
100
AcDbEntity
8
0
100
AcDbSpline
70
0
71
3
72
20
73
16
74
0
42
0.000000001
43
0.0000000001
44
0.0000000001
40
0
40
0
40
0
40
0
40
0.3099209803108271
40
0.3099209803108271
40
0.3099209803108271
40
0.56244634578346209
40
0.56244634578346209
40
0.56244634578346209
40
0.74205411798331011
40
0.74205411798331011
40
0.74205411798331011
40
0.89684501364156133
40
0.89684501364156133
40
0.89684501364156133
40
1
40
1
40
1
40
1
10
-50.751858083933229
20
-68.833498420442524
30
0
10
-50.525583547092182
20
-71.028585563312731
30
0
10
-50.390551391092814
20
-73.544294168991939
30
0
10
-50.15736472458503
20
-76.236057243633752
30
0
10
-49.967362911464249
20
-78.429321002376184
30
0
10
-49.719275584296021
20
-80.715842965746276
30
0
10
-49.06331325856334
20
-82.940901720693716
30
0
10
-48.59676237662967
20
-84.523466882977118
30
0
10
-47.909595026607974
20
-86.106938282138415
30
0
10
-46.728332911911451
20
-87.473638338590803
30
0
10
-45.710288879064237
20
-88.65149786684691
30
0
10
-44.29684386834532
20
-89.61087576145259
30
0
10
-42.675633278891084
20
-90.114671328065498
30
0
10
-41.595234102129851
20
-90.450408288436421
30
0
10
-40.437669751643519
20
-90.599415904154483
30
0
10
-39.230495856428718
20
-90.599415904154483
30
0
0
LINE
5
116
100
AcDbEntity
8
0
100
AcDbLine
10
-39.230495856428725
20
-90.599415904154483
30
0
11
30.000000447034836
21
-90.599415904154469
31
0
0
SPLINE
5
117
100
AcDbEntity
8
0
100
AcDbSpline
70
4
71
5
72
16
73
10
74
0
42
0.000000001
43
0.0000000001
44
0.0000000001
40
0
40
0
40
0
40
0
40
0
40
0
40
0.20000000000000001
40
0.40000000000000002
40
0.60000000000000009
40
0.80000000000000004
40
1
40
1
40
1
40
1
40
1
40
1
41
1
41
1
41
1
41
1
41
1
41
1
41
1
41
1
41
1
41
1
10
44.23300659717269
20
-76.165030780491506
30
0
10
43.269641624046656
20
-76.165030780491506
30
0
10
41.544074356322618
20
-76.459785093850854
30
0
10
39.558586609043211
20
-77.785263894506159
30
0
10
37.879704439248968
20
-80.971571455103017
30
0
10
36.353302604958266
20
-85.792875229544535
30
0
10
34.674420435164187
20
-88.979182790140712
30
0
10
32.688932687884822
20
-90.30466159079522
30
0
10
30.963365420160859
20
-90.599415904154483
30
0
10
30.000000447034836
20
-90.599415904154483
30
0
0
LINE
5
118
100
AcDbEntity
8
0
100
AcDbLine
10
44.23300659717269
20
-76.165030780491506
30
0
11
70.6524334382121
21
-76.165030780491506
31
0
0
SPLINE
5
119
100
AcDbEntity
8
0
100
AcDbSpline
70
0
71
3
72
14
73
10
74
0
42
0.000000001
43
0.0000000001
44
0.0000000001
40
0
40
0
40
0
40
0
40
0.37731023917335327
40
0.37731023917335327
40
0.37731023917335327
40
0.7369900589719196
40
0.7369900589719196
40
0.7369900589719196
40
1
40
1
40
1
40
1
10
70.6524334382121
20
-76.165030780491506
30
0
10
72.538740075280245
20
-76.165030780491506
30
0
10
74.335570689208083
20
-75.644772368319067
30
0
10
75.800027973878116
20
-74.736511925502839
30
0
10
77.196056169155412
20
-73.870691392463414
30
0
10
78.366429047758558
20
-72.667248533441594
30
0
10
79.135206529614379
20
-71.089117675896588
30
0
10
79.697362394460654
20
-69.935135492492606
30
0
10
80.00000111758709
20
-68.580462731869162
30
0
10
80.00000111758709
20
-67.20063674943512
30
0
0
LINE
5
120
100
AcDbEntity
8
0
100
AcDbLine
10
80.00000111758709
20
-67.200636749435105
30
0
11
80.00000111758709
21
9.6286826939680736
31
0
0
SPLINE
5
121
100
AcDbEntity
8
0
100
AcDbSpline
70
0
71
3
72
20
73
16
74
0
42
0.000000001
43
0.0000000001
44
0.0000000001
40
0
40
0
40
0
40
0
40
0.35057399477329715
40
0.35057399477329715
40
0.35057399477329715
40
0.58262478352963121
40
0.58262478352963121
40
0.58262478352963121
40
0.74268394557924411
40
0.74268394557924411
40
0.74268394557924411
40
0.88813595044340432
40
0.88813595044340432
40
0.88813595044340432
40
1
40
1
40
1
40
1
10
80.00000111758709
20
9.6286826939680754
30
0
10
80.00000111758709
20
10.571800219012317
30
0
10
80.073931254651711
20
11.694166973536891
30
0
10
80.083865017159397
20
13.014272095426806
30
0
10
80.090440340656258
20
13.888071747833781
30
0
10
80.07995384508213
20
14.835479348761885
30
0
10
79.83145300097955
20
15.914324464488779
30
0
10
79.6600472622236
20
16.658467788155246
30
0
10
79.359343274329575
20
17.499832000134653
30
0
10
78.734103081889003
20
18.29029735445955
30
0
10
78.165922926828927
20
19.008624059972206
30
0
10
77.308209951487839
20
19.618908760316923
30
0
10
76.402589150819409
20
19.929313392829879
30
0
10
75.706095415858044
20
20.168039007003809
30
0
10
74.999796829916264
20
20.254328170518569
30
0
10
74.313168750563136
20
20.254328170518569
30
0
0
LINE
5
122
100
AcDbEntity
8
0
100
AcDbLine
10
74.313168750563122
20
20.254328170518569
30
0
11
37.414427462010941
21
20.254328170518608
31
0
0
SPLINE
5
123
100
AcDbEntity
8
0
100
AcDbSpline
70
0
71
3
72
20
73
16
74
0
42
0.000000001
43
0.0000000001
44
0.0000000001
40
0
40
0
40
0
40
0
40
0.175233371225167
40
0.175233371225167
40
0.175233371225167
40
0.39472007115234453
40
0.39472007115234453
40
0.39472007115234453
40
0.65447052462600097
40
0.65447052462600097
40
0.65447052462600097
40
0.85521429626759127
40
0.85521429626759127
40
0.85521429626759127
40
1
40
1
40
1
40
1
10
37.414427462010941
20
20.254328170518608
30
0
10
35.496921951494656
20
20.254328170518612
30
0
10
33.654667360551898
20
19.807038200736123
30
0
10
32.09932973946087
20
19.002555279675242
30
0
10
30.151208104072115
20
17.994908732348708
30
0
10
28.685102142542632
20
16.518906549600597
30
0
10
27.469508832819969
20
15.07367862507072
30
0
10
26.030920920455504
20
13.363330759373259
30
0
10
24.873864741616135
20
11.663485831266797
30
0
10
23.746697593399851
20
10.456833141341978
30
0
10
22.875585410235249
20
9.5242918933955281
30
0
10
22.072109575823738
20
8.9065038219520627
30
0
10
21.215931522735229
20
8.5501245858218731
30
0
10
20.598416264737654
20
8.2930873782573329
30
0
10
19.92631765901023
20
8.1482166407591503
30
0
10
19.041622905081848
20
8.1482166407591521
30
0
0
LINE
5
124
100
AcDbEntity
8
0
100
AcDbLine
10
19.041622905081848
20
8.1482166407591521
30
0
11
10.108127653297165
21
8.1482166407591539
31
0
0
SPLINE
5
125
100
AcDbEntity
8
0
100
AcDbSpline
70
0
71
3
72
12
73
8
74
0
42
0.000000001
43
0.0000000001
44
0.0000000001
40
-1
40
-1
40
-1
40
-1
40
-0.80000000000000004
40
-0.59999999999999998
40
-0.40000000000000002
40
-0.20000000000000001
40
0
40
0
40
0
40
0
10
10.108127653297165
20
8.1482166407591539
30
0
10
8.5627244958991255
20
8.1482166407591556
30
0
10
5.4721927286848704
20
8.629684614551774
30
0
10
1.2755380331101362
20
10.727852151378222
30
0
10
-2.0839693033833022
20
14.003116026407611
30
0
10
-4.2880153250421689
20
18.145144367799247
30
0
10
-4.8477980417396305
20
21.222455096996946
30
0
10
-4.8870365086720202
20
22.767360033104218
30
0
0
SPLINE
5
126
100
AcDbEntity
8
0
100
AcDbSpline
70
0
71
3
72
8
73
4
74
0
42
0.000000001
43
0.0000000001
44
0.0000000001
40
0
40
0
40
0
40
0
40
0.4293268006345316
40
0.4293268006345316
40
0.4293268006345316
40
0.4293268006345316
10
-5.5239189393781132
20
26.453098944155041
30
0
10
-5.102008535209432
20
25.228552128382269
30
0
10
-4.9179369449220669
20
23.983978321816014
30
0
10
-4.8870365086719438
20
22.767360033101166
30
0
0
LINE
5
127
100
AcDbEntity
8
0
100
AcDbLine
10
-5.5239189393781132
20
26.453098944155041
30
0
11
-11.611704253072537
21
44.122201311235692
31
0
0
SPLINE
5
128
100
AcDbEntity
8
0
100
AcDbSpline
70
0
71
3
72
14
73
10
74
0
42
0.000000001
43
0.0000000001
44
0.0000000001
40
0
40
0
40
0
40
0
40
0.38205637586852548
40
0.38205637586852548
40
0.38205637586852548
40
0.9070141193646708
40
0.9070141193646708
40
0.9070141193646708
40
1
40
1
40
1
40
1
10
-17.046734249681688
20
51.758205482254041
30
0
10
-15.821151535687981
20
51.093717252047988
30
0
10
-14.839855074040457
20
50.1408665709899
30
0
10
-14.106198729776899
20
49.145407805105286
30
0
10
-13.098131325821928
20
47.777615456936033
30
0
10
-12.444418520100387
20
46.343421436238316
30
0
10
-11.89217233392389
20
44.895230674103921
30
0
10
-11.794352845431098
20
44.638712325697078
30
0
10
-11.700903445766128
20
44.381091792018353
30
0
10
-11.611704253072537
20
44.122201311235692
30
0
0
LINE
5
129
100
AcDbEntity
8
0
100
AcDbLine
10
-17.046734249681688
20
51.758205482254041
30
0
11
-39.29474756028084
21
63.820665911535521
31
0
0
SPLINE
5
130
100
AcDbEntity
8
0
100
AcDbSpline
70
0
71
3
72
14
73
10
74
0
42
0.000000001
43
0.0000000001
44
0.0000000001
40
0
40
0
40
0
40
0
40
0.35679817608267678
40
0.35679817608267678
40
0.35679817608267678
40
0.8198601877766063
40
0.8198601877766063
40
0.8198601877766063
40
1
40
1
40
1
40
1
10
-47.874288912971409
20
62.198447923195516
30
0
10
-47.117690109548121
20
63.154151674888091
30
0
10
-46.113570617832721
20
63.847798143090309
30
0
10
-45.082592015443396
20
64.230582024714565
30
0
10
-43.744561000606666
20
64.727368965205727
30
0
10
-42.339231877541181
20
64.815105974401547
30
0
10
-40.918525416911734
20
64.457079301558124
30
0
10
-40.365843943201227
20
64.317800207207341
30
0
10
-39.815819282860161
20
64.103181340966529
30
0
10
-39.29474756028084
20
63.820665911535521
30
0
0
LINE
5
131
100
AcDbEntity
8
0
100
AcDbLine
10
-47.874288912971409
20
62.198447923195516
30
0
11
-66.874289196093443
21
38.198447565567648
31
0
0
SPLINE
5
132
100
AcDbEntity
8
0
100
AcDbSpline
70
0
71
3
72
14
73
10
74
0
42
0.000000001
43
0.0000000001
44
0.0000000001
40
0
40
0
40
0
40
0
40
0.2663654076053199
40
0.2663654076053199
40
0.2663654076053199
40
0.57800927019897963
40
0.57800927019897963
40
0.57800927019897963
40
1
40
1
40
1
40
1
10
-65.43485040491916
20
24.458751630354911
30
0
10
-66.850588107405599
20
25.258110783193533
30
0
10
-67.951524688100847
20
26.389282654681946
30
0
10
-68.589446744838597
20
27.668799841475732
30
0
10
-69.335806775530031
20
29.165817348111695
30
0
10
-69.495157026081401
20
30.768774990025495
30
0
10
-69.332911612352092
20
32.302667837536262
30
0
10
-69.113218338187508
20
34.379681505543608
30
0
10
-68.283241582403861
20
36.418718235491362
30
0
10
-66.874289196093443
20
38.198447565567648
30
0
0
ENDSEC
0
SECTION
2
OBJECTS
0
DICTIONARY
5
C
100
AcDbDictionary
3
ACAD_GROUP
350
D
3
ACAD_MLINESTYLE
350
17
0
DICTIONARY
5
D
100
AcDbDictionary
0
DICTIONARY
5
1A
330
C
100
AcDbDictionary
0
DICTIONARY
5
17
100
AcDbDictionary
0
ENDSEC
0
EOF
